<?xml version="1.0" standalone="no"?>
<!DOCTYPE svg PUBLIC "-//W3C//DTD SVG 20010904//EN"
 "http://www.w3.org/TR/2001/REC-SVG-20010904/DTD/svg10.dtd">
<svg version="1.0" xmlns="http://www.w3.org/2000/svg"
 width="700.000000pt" height="700.000000pt" viewBox="0 0 700.000000 700.000000"
 preserveAspectRatio="xMidYMid meet">
<metadata>
Created by potrace 1.14, written by Peter Selinger 2001-2017
</metadata>
<g transform="translate(0.000000,700.000000) scale(0.100000,-0.100000)"
fill="#000000" stroke="none">
<path d="M2410 6669 c-47 -17 -89 -34 -93 -38 -4 -4 10 -52 32 -105 22 -54 41
-107 43 -117 2 -16 -13 -27 -84 -57 -49 -20 -88 -40 -88 -44 0 -5 22 -53 49
-108 l50 -100 -31 -16 c-18 -9 -46 -24 -62 -34 -17 -9 -41 -22 -53 -29 l-22
-11 31 -53 c17 -28 42 -71 55 -93 l23 -42 -70 -41 c-38 -23 -70 -46 -70 -51 0
-5 23 -43 51 -85 29 -42 50 -77 48 -79 -20 -20 -129 -94 -129 -88 0 4 -10 18
-22 32 -13 14 -39 46 -58 72 l-35 46 -35 -26 c-19 -14 -37 -28 -40 -31 -3 -4
-17 -17 -32 -30 l-27 -24 -43 48 c-76 85 -96 105 -104 105 -5 0 -37 -28 -71
-62 l-62 -62 -83 83 -83 82 -71 -77 c-60 -65 -73 -74 -85 -62 -36 34 -180 150
-183 147 -62 -76 -126 -162 -126 -169 0 -5 45 -41 99 -81 l100 -72 -55 -79
c-30 -43 -54 -83 -54 -87 0 -5 43 -34 95 -66 52 -31 95 -60 95 -62 0 -3 -15
-31 -34 -62 -64 -107 -68 -93 39 -151 l96 -51 -37 -69 c-20 -38 -34 -75 -31
-82 3 -7 41 -28 86 -47 45 -19 81 -37 81 -40 0 -19 -58 -150 -63 -144 -12 12
-169 63 -177 58 -5 -3 -18 -39 -31 -80 -25 -84 -16 -81 -129 -45 -105 34 -101
36 -125 -60 -25 -98 -19 -96 -153 -66 -40 9 -79 16 -86 16 -13 0 -23 -42 -41
-158 -4 -23 -10 -40 -13 -38 -4 2 -32 7 -62 10 -30 4 -77 10 -105 14 -81 12
-79 13 -87 -53 -14 -129 -15 -154 -4 -158 6 -2 45 -5 86 -6 41 -2 86 -5 100
-6 14 -2 32 -4 40 -4 13 -1 16 -18 15 -103 l0 -103 110 -1 c61 -1 113 -2 116
-3 3 0 6 -27 6 -58 1 -32 1 -73 2 -91 l1 -34 110 7 110 7 1 -39 c0 -21 2 -47
5 -58 2 -11 5 -32 6 -47 1 -16 5 -28 8 -28 3 0 46 7 95 14 59 9 92 10 96 4 4
-6 10 -36 13 -67 4 -31 10 -61 14 -67 6 -11 122 9 377 65 22 5 157 34 300 65
143 31 271 58 284 61 21 5 23 10 18 46 -3 23 -7 43 -10 45 -2 2 -26 0 -53 -5
-27 -5 -51 -8 -53 -5 -4 3 -7 29 -10 71 -1 20 -5 21 -61 16 l-60 -5 -1 29 c-1
15 -1 32 0 37 1 4 -1 16 -4 26 -4 14 -16 17 -63 15 -31 -1 -60 2 -63 7 -4 6
-4 32 -2 59 l4 49 -40 1 c-23 1 -50 3 -61 4 -11 1 -25 3 -31 4 -10 1 -10 28 1
119 0 3 84 -6 121 -13 14 -3 20 5 25 33 13 81 5 76 105 57 l37 -7 12 50 11 50
55 -15 c57 -14 74 -12 74 12 0 8 4 25 9 39 l10 24 52 -19 c28 -11 52 -19 53
-17 10 16 26 62 26 72 0 8 -18 21 -39 29 -50 21 -55 30 -36 66 22 44 20 48
-34 76 l-50 25 24 42 c14 24 25 45 25 48 0 3 -22 19 -50 35 -27 16 -50 33 -50
38 0 4 11 25 25 45 14 20 25 41 25 47 0 5 -23 25 -50 43 -28 17 -50 38 -50 45
0 6 16 30 34 52 l34 40 43 -35 c24 -19 46 -38 47 -42 7 -16 23 -7 59 33 l36
40 46 -45 46 -45 39 35 40 36 35 -41 c20 -23 40 -41 45 -41 4 0 21 11 38 25
16 14 33 25 36 25 4 0 20 -18 35 -40 l28 -40 31 17 c42 25 43 35 12 82 -15 23
-25 43 -23 45 2 1 21 14 41 27 l37 25 -30 47 c-16 26 -29 49 -29 52 0 2 20 15
45 27 l45 23 -25 54 c-14 29 -25 56 -25 60 0 4 22 18 49 31 l50 23 -25 55
c-13 30 -24 60 -24 67 0 14 101 49 111 38 3 -5 14 -34 24 -65 10 -32 19 -58
20 -58 22 0 105 34 105 44 0 7 -7 35 -15 62 -8 27 -15 52 -15 56 0 4 27 13 60
20 60 12 61 13 56 43 -3 16 -8 51 -11 77 l-7 46 66 7 66 7 -5 47 c-3 25 -10
91 -16 146 -6 55 -13 114 -15 130 -2 17 -6 57 -9 90 -3 33 -8 77 -11 98 l-6
39 -42 -5 c-22 -3 -60 -9 -82 -12 -36 -6 -43 -4 -47 11 -9 31 -32 168 -30 182
1 13 -21 11 -130 -13 -43 -9 -60 -10 -62 -1 -6 15 -47 178 -49 193 -4 22 -10
22 -81 1 -132 -38 -117 -46 -160 86 -20 64 -42 116 -49 115 -6 0 -49 -14 -96
-30z"/>
<path d="M4445 6585 c-27 -87 -40 -115 -53 -115 -9 0 -51 11 -93 24 -42 13
-81 21 -86 17 -8 -5 -22 -55 -24 -88 -1 -5 -5 -15 -9 -23 -4 -8 -11 -33 -14
-55 -9 -52 -15 -57 -56 -45 -33 10 -80 19 -124 23 -12 1 -20 -5 -22 -18 -30
-192 -28 -187 -77 -180 -23 3 -61 8 -84 11 -32 5 -43 3 -44 -7 -1 -8 -3 -23
-4 -34 -1 -11 -5 -51 -9 -90 -4 -38 -9 -81 -11 -95 -2 -14 -7 -50 -10 -80 -3
-30 -8 -71 -10 -90 -2 -19 -7 -60 -10 -91 l-6 -57 67 -7 66 -7 -7 -46 c-3 -26
-8 -61 -11 -78 -6 -31 -4 -32 38 -40 23 -4 46 -9 51 -10 4 -1 12 -2 18 -3 6 0
8 -8 5 -18 -4 -9 -9 -32 -12 -52 -3 -20 -10 -43 -14 -52 -7 -12 1 -19 42 -32
28 -9 55 -14 59 -11 4 2 15 28 24 57 10 28 21 55 24 60 9 9 111 -23 111 -35 0
-4 -11 -35 -24 -68 l-25 -60 50 -21 c27 -12 49 -26 49 -31 0 -5 -12 -31 -26
-59 -14 -28 -24 -52 -22 -52 2 -1 12 -8 23 -15 11 -6 30 -17 43 -22 l23 -10
-29 -53 -29 -53 36 -24 c20 -13 38 -25 40 -27 2 -2 -10 -23 -27 -47 l-32 -44
37 -28 c31 -23 38 -25 47 -13 6 9 21 28 34 44 l22 28 38 -30 37 -31 40 45 41
45 38 -37 38 -37 48 47 47 46 36 -43 36 -42 43 34 c24 19 45 38 46 42 8 17 32
6 53 -24 13 -18 27 -34 31 -36 20 -9 3 -34 -47 -69 l-55 -39 30 -40 c16 -21
30 -44 30 -49 0 -6 -22 -24 -50 -40 -27 -16 -50 -33 -50 -37 0 -5 11 -26 25
-47 l24 -39 -53 -28 -53 -28 19 -44 c11 -24 18 -45 16 -47 -1 -1 -24 -12 -51
-23 l-47 -21 17 -38 c10 -21 18 -39 19 -41 0 -1 22 6 48 15 46 17 48 17 62 -1
8 -11 14 -28 14 -37 0 -28 16 -31 72 -14 28 8 53 15 54 15 1 0 5 -17 9 -38 10
-62 16 -67 68 -53 71 17 76 16 84 -31 3 -24 5 -45 4 -47 -8 -13 28 -16 80 -9
33 6 62 8 64 6 3 -2 7 -30 10 -61 6 -53 5 -57 -14 -58 -12 -1 -30 -3 -41 -4
-11 -1 -34 -3 -51 -4 -29 -1 -30 -3 -29 -43 3 -77 6 -74 -62 -74 -43 1 -63 -3
-64 -12 -1 -6 -2 -30 -3 -53 l-1 -40 -60 5 c-48 4 -60 3 -61 -9 -1 -8 -3 -19
-4 -25 -1 -5 -3 -21 -4 -34 -1 -20 -5 -23 -33 -20 -18 2 -43 6 -55 9 -13 3
-23 1 -23 -5 0 -15 0 -17 -10 -50 -5 -16 -6 -30 -2 -31 4 0 14 -2 22 -4 32 -7
67 -14 115 -24 28 -5 57 -12 65 -15 8 -3 29 -7 45 -10 17 -2 104 -21 195 -41
91 -20 239 -52 330 -71 91 -19 175 -36 187 -39 24 -5 28 3 39 69 8 56 13 78
16 81 2 1 43 -4 93 -11 49 -8 92 -10 96 -6 8 8 18 78 18 130 l1 33 110 -6 110
-7 1 43 c1 51 6 132 8 139 0 3 53 5 117 4 l115 -1 -4 104 -4 103 31 1 c17 0
58 3 91 5 33 3 76 6 95 8 23 2 35 8 35 17 -1 8 -5 52 -10 99 -4 47 -9 90 -9
95 -1 6 -5 10 -11 10 -13 0 -204 -26 -227 -30 -10 -2 -18 -1 -18 3 0 7 -14 91
-25 152 -3 19 -8 36 -10 38 -2 2 -49 -6 -106 -17 -56 -12 -107 -21 -113 -21
-6 0 -20 38 -30 85 -13 58 -23 85 -33 85 -8 0 -55 -11 -105 -25 -50 -15 -91
-25 -93 -23 -1 2 -12 35 -25 73 -12 39 -26 74 -30 78 -4 4 -44 -6 -89 -23 -45
-16 -86 -30 -91 -30 -9 0 -65 139 -59 145 2 1 39 18 83 36 43 18 80 38 83 45
2 6 -12 44 -31 83 l-36 71 72 37 c106 54 113 59 111 69 -1 5 -20 43 -43 83
-33 58 -39 76 -28 83 7 4 50 32 96 60 53 33 81 56 78 65 -3 7 -28 46 -55 87
l-50 73 100 72 c54 40 99 76 99 80 0 9 -114 156 -127 164 -4 3 -51 -31 -103
-74 l-95 -80 -70 76 -70 76 -83 -82 -83 -83 -62 62 c-34 34 -68 62 -74 62 -6
0 -21 -12 -33 -27 -12 -15 -41 -49 -66 -75 l-45 -48 -66 55 -66 54 -59 -74
c-33 -41 -63 -75 -67 -75 -5 0 -104 71 -120 86 -2 2 19 37 47 79 29 41 52 79
52 84 0 5 -31 28 -70 51 l-69 42 19 36 c11 21 26 46 33 57 6 10 22 36 34 57
l23 37 -84 46 -83 45 49 100 c27 56 47 104 44 109 -3 4 -40 23 -83 41 -43 18
-81 36 -86 40 -4 3 13 57 38 119 42 106 47 131 25 131 -5 0 -21 5 -37 12 -15
6 -32 12 -38 14 -5 1 -30 9 -54 18 -24 9 -47 16 -51 16 -5 0 -25 -52 -45 -115z"/>
<path d="M3334 5013 c-49 -85 -96 -167 -104 -182 -8 -14 -54 -93 -102 -176
-48 -82 -90 -157 -93 -166 -5 -14 43 -16 466 -18 394 -2 471 0 466 12 -7 19
-267 470 -277 480 -4 5 -23 -18 -42 -52 -39 -70 -24 -82 -129 102 -38 65 -74
126 -82 137 -12 17 -21 6 -103 -137z"/>
<path d="M2736 4343 c-28 -170 -16 -162 -121 -87 -125 90 -134 95 -104 53 12
-19 26 -36 29 -39 10 -7 100 -144 97 -146 -1 -1 -58 -12 -126 -23 -124 -20
-159 -30 -105 -32 16 0 36 -2 44 -4 8 -2 33 -6 55 -10 22 -3 51 -8 65 -11 14
-2 36 -6 49 -9 22 -4 115 -84 108 -92 -2 -1 -40 8 -84 21 l-80 23 -21 -41
c-12 -23 -39 -74 -62 -114 -35 -63 -38 -71 -18 -58 13 9 45 38 72 65 56 57 47
59 144 -30 l62 -56 0 -71 0 -70 -85 26 c-82 24 -86 24 -99 7 -21 -30 -108
-196 -104 -200 2 -2 33 25 69 60 l66 64 76 -67 76 -67 1 -77 c0 -43 -2 -78 -5
-78 -8 0 -137 37 -155 44 -11 4 -23 -8 -41 -41 -14 -27 -43 -79 -64 -118 -21
-38 -35 -67 -31 -63 4 3 37 33 73 65 36 32 69 58 73 58 3 0 39 -29 78 -65 l72
-64 0 -99 c0 -80 -3 -98 -14 -94 -7 3 -46 15 -86 27 -81 24 -77 26 -116 -49
-10 -20 -30 -56 -44 -81 -57 -98 -53 -97 77 28 13 13 28 22 34 20 6 -2 42 -31
79 -63 l69 -60 0 -72 c1 -40 -1 -73 -3 -73 -3 0 -42 12 -86 26 -45 14 -83 24
-85 22 -4 -5 -91 -161 -110 -197 -16 -31 -10 -28 56 32 40 37 76 67 79 67 3 0
38 -31 78 -68 l73 -67 -3 -76 -3 -76 -75 23 c-41 13 -80 24 -86 24 -6 0 -30
-35 -54 -77 -24 -43 -52 -93 -63 -112 -19 -32 -19 -33 -1 -23 10 6 41 33 69
61 27 28 54 51 61 51 6 0 20 -8 31 -17 85 -75 124 -115 120 -126 -2 -6 -48
-86 -100 -177 l-96 -165 110 -3 c61 -1 157 -1 214 0 l104 3 -73 126 -72 126 1
81 1 81 45 40 44 40 50 -48 c28 -26 61 -56 74 -66 23 -19 22 -17 -6 35 -17 30
-43 79 -59 109 -16 29 -35 56 -41 58 -7 3 -33 -2 -58 -10 -25 -9 -45 -13 -46
-9 -1 4 -2 46 -3 95 l-1 87 42 42 c47 46 40 48 121 -27 67 -61 78 -63 46 -9
-80 141 -96 169 -98 172 -2 1 -24 -5 -51 -13 -27 -8 -51 -12 -55 -10 -4 2 -6
43 -5 90 l2 86 39 34 c22 19 44 34 49 35 6 0 38 -28 73 -62 34 -33 64 -59 66
-57 2 2 -25 55 -59 117 -34 63 -65 110 -69 104 -5 -8 -62 -25 -91 -26 -5 -1
-10 44 -10 108 0 118 5 133 63 175 l28 19 44 -40 c113 -102 108 -102 50 7 -79
148 -66 135 -122 118 -27 -7 -52 -12 -56 -9 -4 2 -7 46 -6 97 l1 92 39 33 c21
18 44 33 50 34 5 0 23 -14 40 -31 16 -17 47 -45 68 -62 l39 -31 -30 54 c-16
30 -43 78 -58 105 -15 28 -31 54 -35 59 -5 4 -31 1 -58 -7 -36 -10 -52 -11
-55 -3 -2 6 -3 46 -2 90 l1 78 45 39 44 38 35 -32 c19 -18 37 -34 40 -37 3 -3
21 -18 39 -35 l34 -30 -48 90 c-27 49 -55 101 -64 116 l-15 27 -53 -19 c-29
-10 -54 -15 -57 -11 -11 19 27 71 56 76 7 1 66 11 131 21 123 20 128 27 26 40
-30 4 -56 8 -59 10 -3 2 -27 6 -55 10 -27 3 -51 7 -52 9 -3 3 38 65 103 155
53 71 47 70 -81 -23 -49 -35 -91 -64 -92 -62 -1 1 -11 57 -23 126 -12 69 -22
126 -24 127 -2 2 -11 -45 -20 -104z"/>
<path d="M4226 4233 c-7 -23 -126 -511 -132 -539 -2 -12 -38 -159 -79 -327
-41 -168 -75 -311 -75 -317 0 -5 6 -10 14 -10 23 0 26 -14 12 -61 -26 -87 -27
-106 -6 -112 16 -4 17 -10 9 -47 -11 -50 -7 -56 42 -65 36 -7 37 -6 44 32 5
21 7 42 6 46 -1 5 7 6 18 2 25 -7 34 9 52 93 12 58 15 63 36 59 19 -3 24 1 29
22 5 23 23 96 54 218 10 39 12 41 43 36 103 -16 159 -97 163 -237 3 -136 -66
-320 -156 -415 l-39 -41 -153 0 c-84 1 -181 1 -215 1 l-63 -1 -20 -42 c-11
-23 -20 -43 -20 -45 0 -2 97 -3 215 -3 l215 0 -12 -25 c-6 -15 -20 -25 -32
-26 -12 0 -110 0 -218 0 l-198 0 -20 -39 c-11 -22 -20 -43 -20 -47 0 -5 91 -8
203 -7 111 0 205 -1 209 -3 5 -2 -1 -22 -12 -43 l-20 -39 -157 0 c-87 1 -194
0 -239 0 l-81 -1 -37 -73 c-20 -40 -36 -75 -36 -78 0 -3 241 -5 535 -5 294 0
535 4 535 8 0 5 -16 39 -35 77 l-34 69 26 64 c14 34 29 72 34 83 15 34 58 207
65 260 3 28 8 59 10 70 2 11 4 70 5 130 0 169 -37 312 -108 418 -19 28 -39 54
-44 55 -17 6 -9 28 14 41 36 20 60 61 65 110 12 132 -119 220 -234 157 l-42
-23 10 35 c5 19 11 42 13 51 2 9 29 121 60 249 31 128 55 235 53 238 -3 2 -51
15 -109 29 -57 14 -112 28 -121 31 -10 3 -18 -2 -22 -13z m284 -683 c47 -47
15 -124 -52 -122 -39 1 -68 32 -68 73 0 59 78 91 120 49z"/>
<path d="M940 3010 c-102 -177 -92 -170 -140 -82 -13 23 -26 42 -30 42 -3 0
-54 -83 -112 -185 l-107 -185 480 0 c453 0 479 1 470 18 -5 9 -54 94 -109 189
l-99 172 -33 -60 c-19 -32 -36 -59 -39 -59 -3 0 -46 70 -95 155 -48 85 -89
155 -91 155 -1 0 -44 -72 -95 -160z"/>
<path d="M5730 2890 c-89 -155 -160 -283 -158 -286 3 -2 183 -3 401 -2 l396 3
-102 176 c-56 96 -106 177 -112 180 -5 2 -23 -20 -39 -48 -17 -29 -33 -53 -36
-53 -4 0 -45 67 -133 224 -56 99 -36 117 -217 -194z"/>
<path d="M1031 2397 l-25 -30 30 -26 c46 -41 93 -80 704 -586 316 -262 584
-484 595 -493 11 -9 45 -37 75 -62 30 -25 57 -47 60 -50 6 -6 167 -140 450
-374 118 -98 226 -188 240 -200 14 -11 61 -50 105 -86 44 -35 82 -67 85 -70 3
-3 30 -25 60 -50 30 -25 61 -51 68 -57 23 -22 -16 -50 332 239 69 57 193 160
275 228 83 69 159 132 170 141 11 10 63 53 115 96 100 83 380 316 415 345 17
14 747 620 1098 910 59 50 107 92 107 96 0 3 -12 18 -26 33 l-27 28 -121 -102
c-66 -55 -150 -125 -186 -155 -36 -30 -74 -61 -85 -71 -11 -9 -72 -59 -135
-111 -63 -52 -124 -103 -135 -112 -11 -9 -81 -67 -155 -129 -74 -61 -148 -123
-165 -138 -16 -14 -52 -44 -80 -66 -27 -22 -52 -42 -55 -45 -3 -3 -69 -58
-148 -123 -79 -65 -153 -126 -165 -136 -92 -78 -125 -105 -142 -120 -104 -85
-251 -207 -255 -211 -3 -3 -26 -22 -52 -43 -26 -21 -53 -43 -60 -50 -7 -7 -36
-30 -63 -52 -28 -22 -61 -50 -75 -62 -83 -72 -355 -293 -360 -293 -5 0 -1120
921 -1306 1078 -17 15 -40 34 -50 42 -11 8 -71 58 -134 111 -63 52 -252 209
-420 348 -168 139 -314 260 -325 269 -122 102 -192 159 -200 164 -5 3 -21 -8
-34 -25z"/>
<path d="M3254 1956 c-105 -46 -72 -198 42 -198 126 0 138 180 14 206 -14 3
-39 -1 -56 -8z"/>
<path d="M3680 1959 c-58 -24 -84 -82 -60 -139 34 -83 156 -82 191 1 33 81
-52 170 -131 138z"/>
<path d="M4095 1955 c-42 -22 -65 -52 -65 -87 0 -114 142 -153 196 -52 45 83
-48 182 -131 139z"/>
<path d="M5290 1735 c-19 -23 3 -65 34 -65 40 0 44 49 5 70 -23 13 -24 13 -39
-5z m39 -24 c6 -10 7 -21 4 -25 -9 -8 -33 14 -33 30 0 20 18 17 29 -5z"/>
<path d="M3470 1727 c-13 -7 -28 -26 -34 -44 -24 -85 103 -129 134 -47 13 33
3 71 -23 89 -26 18 -44 19 -77 2z"/>
<path d="M3893 1730 c-70 -28 -40 -140 37 -140 28 0 70 47 70 77 0 28 -42 73
-67 72 -10 0 -28 -4 -40 -9z"/>
<path d="M5225 1680 c-10 -11 -13 -20 -7 -20 6 0 14 5 17 10 12 19 23 0 19
-30 -6 -33 1 -37 29 -16 21 16 23 30 3 23 -10 -4 -16 2 -18 20 -4 34 -20 39
-43 13z"/>
<path d="M5172 1638 c-27 -27 -6 -68 34 -68 29 0 37 25 18 56 -18 26 -34 30
-52 12z m37 -27 c6 -10 7 -21 4 -25 -9 -8 -33 14 -33 30 0 20 18 17 29 -5z"/>
<path d="M5105 1580 c-19 -21 -8 -29 13 -8 13 13 16 4 12 -39 -2 -27 12 -30
34 -7 20 19 20 28 2 21 -10 -4 -16 2 -18 20 -4 34 -20 39 -43 13z"/>
<path d="M5036 1521 c-32 -36 3 -83 45 -61 25 14 25 56 0 70 -25 13 -25 13
-45 -9z m38 3 c20 -8 21 -30 1 -37 -19 -8 -31 13 -14 25 12 8 11 9 -1 5 -8 -2
-15 -12 -15 -23 0 -14 6 -18 25 -17 22 2 23 1 7 -8 -33 -19 -62 22 -35 49 14
14 12 14 32 6z"/>
<path d="M3407 1375 c-49 -85 -93 -153 -98 -150 -4 3 -15 20 -24 38 -8 18 -23
42 -33 55 -17 22 -18 22 -124 -163 -59 -102 -102 -185 -95 -186 7 -1 222 -2
478 -3 l467 -1 -22 41 c-54 104 -192 332 -197 328 -4 -2 -21 -29 -39 -60 l-32
-56 -87 153 c-48 84 -92 154 -97 156 -5 1 -49 -67 -97 -152z"/>
<path d="M4926 1431 c-14 -15 -14 -20 -3 -29 7 -6 24 -9 38 -6 23 5 23 5 5
-10 -11 -9 -16 -19 -12 -23 3 -4 16 3 27 14 28 28 16 47 -24 39 -30 -6 -30 -6
-12 14 10 11 14 20 8 20 -5 0 -17 -8 -27 -19z"/>
<path d="M4866 1385 c-18 -13 -18 -15 5 -44 13 -16 26 -30 29 -30 12 -1 43 29
37 35 -4 4 -13 1 -22 -6 -9 -8 -15 -8 -15 -2 0 6 5 14 10 17 6 4 8 11 4 16 -4
6 -11 6 -20 -2 -17 -14 -19 2 -2 19 17 17 -3 15 -26 -3z"/>
<path d="M4816 1341 c-4 -5 -3 -17 0 -26 5 -13 2 -15 -19 -10 -35 9 -39 -5
-12 -38 31 -35 51 -35 28 1 -15 23 -15 25 -1 14 17 -14 34 -1 23 18 -10 17 7
11 20 -7 7 -10 14 -12 18 -6 7 11 -29 63 -43 63 -5 0 -11 -4 -14 -9z"/>
<path d="M4720 1260 c-10 -6 -9 -16 1 -44 13 -37 29 -48 29 -21 0 8 11 17 25
21 14 3 23 10 20 14 -10 16 -63 37 -75 30z m30 -30 c0 -5 -2 -10 -4 -10 -3 0
-8 5 -11 10 -3 6 -1 10 4 10 6 0 11 -4 11 -10z"/>
<path d="M4666 1223 c-3 -3 6 -21 20 -40 14 -18 22 -38 19 -43 -3 -6 1 -10 9
-10 9 0 16 8 16 18 0 20 -54 84 -64 75z"/>
<path d="M4600 1164 c0 -4 7 -16 17 -26 15 -17 15 -18 -16 -7 -18 6 -35 9 -38
6 -7 -7 35 -67 48 -67 14 0 11 11 -8 32 -15 17 -15 18 16 7 41 -15 50 -5 25
28 -20 27 -44 41 -44 27z"/>
<path d="M4514 1092 c-20 -14 -23 -41 -6 -61 15 -18 20 -19 42 -8 14 7 26 20
28 30 7 35 -34 60 -64 39z m43 -28 c9 -25 -12 -38 -31 -19 -9 9 -14 21 -11 26
10 14 35 10 42 -7z"/>
<path d="M4450 1041 c0 -5 5 -13 11 -17 7 -4 8 -9 0 -17 -7 -7 -15 -6 -25 2
-28 24 -25 -6 5 -40 30 -34 30 -34 25 -7 -7 29 11 49 25 27 4 -7 11 -10 15 -6
4 4 -1 19 -12 34 -22 29 -44 41 -44 24z"/>
<path d="M4380 985 c0 -3 7 -17 16 -30 23 -36 7 -52 -21 -19 -15 18 -25 22
-30 15 -4 -7 5 -22 21 -36 21 -18 32 -21 46 -14 22 12 23 32 2 64 -15 22 -34
34 -34 20z"/>
<path d="M4286 905 c-18 -13 -18 -15 4 -44 25 -36 31 -37 53 -13 42 46 -7 95
-57 57z m49 -15 c4 -6 4 -18 1 -27 -5 -12 -9 -13 -21 -3 -8 7 -15 19 -15 26 0
16 26 19 35 4z"/>
</g>
</svg>
