<svg id="Layer_1" data-name="Layer 1" xmlns="http://www.w3.org/2000/svg" viewBox="0 0 661.09 612"><defs><style>.cls-1{fill:#324049;}.cls-2{fill:#c73f49;}.cls-3,.cls-7,.cls-16{fill:none;stroke-miterlimit:10;stroke-width:6px;}.cls-3,.cls-16{stroke:#231f20;}.cls-4{fill:#ffcc32;}.cls-14,.cls-15,.cls-5{fill:#231f20;}.cls-6{fill:#1c75bc;}.cls-7{stroke:#009444;}.cls-8{fill:#009444;}.cls-9{fill:#603913;}.cls-10{fill:#6ecff6;}.cls-11{fill:#808285;}.cls-12{fill:#6d6e71;}.cls-13{fill:#939598;}.cls-14{font-size:8px;font-family:HelveticaRounded-Bold, Helvetica Rounded;letter-spacing:0.01em;}.cls-14,.cls-15{font-weight:700;}.cls-15{font-size:70px;font-family:BradleyHandITC-Bold, BradleyHand ITC;}.cls-16{fill:#fff;}</style></defs><path class="cls-1" d="M558,295.38q-.56-8-1.65-15.79l-18,2.53q-1-7.28-2.52-14.39l-16.38,3.48q-1.4-6.61-3.23-13l-14.81,4.25q-1.71-6-3.82-11.77l-13.32,4.85q-2-5.36-4.27-10.54l12.94-5.77q-2.52-5.66-5.43-11.11l13.61-7.23q-3.18-6-6.74-11.64l14.2-8.87q-3.87-6.2-8.18-12.1l14.73-10.7q-4.68-6.43-9.79-12.51l-13.94,11.7q-4.69-5.59-9.77-10.85L469.57,177.5q-4.67-4.84-9.66-9.34L449.6,179.6c-3.06-2.75-6.22-5.41-9.47-7.95l-8.72,11.17q-4.49-3.51-9.2-6.7l7.93-11.75q-5.11-3.47-10.49-6.56l7.71-13.34q-5.81-3.36-11.87-6.32l7.34-15.05q-6.54-3.19-13.34-5.95l6.82-16.88q-7.35-3-14.93-5.43l-5.62,17.31q-6.93-2.24-14.05-4l-4,16.25c-4.33-1.07-8.71-2-13.15-2.79l-2.68,15.18q-6.06-1.07-12.25-1.71l-1.48,14.09-1.36,13-1.25,11.93q4.81.51,9.53,1.33l-1.91,10.87c2.92.51,5.81,1.13,8.66,1.84l-2.45,9.85q4,1,7.83,2.25l3.14-9.66q4.23,1.36,8.33,3L374.81,203q3.79,1.53,7.45,3.32l-4.1,8.4q3.38,1.65,6.62,3.52l-4.3,7.44q3,1.74,5.85,3.66l-4.42,6.56c1.76,1.18,3.47,2.43,5.13,3.73l4.87-6.23q2.71,2.13,5.28,4.44l5.75-6.38c1.86,1.67,3.65,3.41,5.39,5.21l6.72-6.49q2.83,2.92,5.45,6l7.78-6.52q2.85,3.39,5.46,7l-8.22,6q2.4,3.3,4.57,6.75l-7.92,4.95q2,3.18,3.75,6.49l-7.59,4q1.62,3,3,6.2l-7.22,3.21c.86,1.93,1.66,3.89,2.38,5.89l7.43-2.71q1.19,3.22,2.13,6.56l8.27-2.37q1,3.6,1.8,7.28l9.14-1.94q.84,4,1.4,8l10.06-1.41c.4,2.9.71,5.84.91,8.81l-10.12.71c.18,2.69.28,5.4.28,8.14h-9.34q0,3.78-.26,7.49l-8.57-.6q-.24,3.47-.72,6.86l-7.83-1.1c-.29,2.11-.65,4.2-1.09,6.25l7.73,1.65,8.41,1.79,9.14,1.94,9.93,2.11,10.8,2.29,11.73,2.5,12.76,2.71q1.17-5.53,2-11.21l14,2q.86-6.09,1.28-12.3l15.37,1.07c.3-4.44.47-8.91.47-13.43h16.75c0-4.91-.19-9.78-.52-14.6Z"/><path class="cls-1" d="M307.11,175.38q4.71-.82,9.54-1.33l-1.26-11.93-1.36-13-1.48-14.09q-6.19.65-12.25,1.71l-2.67-15.18c-4.44.78-8.83,1.72-13.15,2.79l-4.06-16.25q-7.12,1.77-14,4l-5.63-17.31q-7.58,2.46-14.92,5.43l6.82,16.88q-6.79,2.75-13.35,5.95l7.34,15.05q-6.06,3-11.86,6.32l7.7,13.34q-5.37,3.1-10.49,6.56l7.93,11.75q-4.72,3.19-9.2,6.7L222,171.65c-3.25,2.54-6.41,5.2-9.47,7.95l-10.3-11.44q-5,4.5-9.67,9.34l-12-11.63q-5.09,5.25-9.78,10.85L156.8,165q-5.1,6.07-9.78,12.51l14.72,10.7q-4.29,5.9-8.18,12.1l14.2,8.87q-3.56,5.7-6.73,11.64l13.6,7.23c-1.93,3.63-3.75,7.34-5.43,11.11l13,5.77q-2.31,5.18-4.27,10.54l-13.32-4.85q-2.12,5.81-3.82,11.77l-14.81-4.25q-1.85,6.43-3.24,13l-16.38-3.48q-1.5,7.11-2.52,14.39l-18-2.53q-1.09,7.82-1.64,15.79l18.15,1.27c-.33,4.82-.51,9.69-.51,14.6h16.74c0,4.52.17,9,.47,13.43l15.37-1.07q.43,6.21,1.28,12.3l14-2q.78,5.67,2,11.21l12.75-2.71,11.74-2.5,10.79-2.29,9.93-2.11,9.14-1.94,8.41-1.79,7.73-1.65c-.43-2-.8-4.14-1.09-6.25L233.2,325q-.47-3.39-.71-6.86l-8.58.6q-.25-3.71-.26-7.49h-9.34q0-4.11.29-8.14l-10.13-.71q.3-4.45.92-8.81L215.44,295c.38-2.71.84-5.39,1.4-8l9.14,1.94q.78-3.68,1.81-7.28l8.26,2.37c.63-2.22,1.35-4.41,2.13-6.56l7.43,2.71q1.09-3,2.38-5.89l-7.22-3.21q1.41-3.17,3-6.2l-7.59-4q1.77-3.31,3.76-6.49L232,249.37q2.18-3.45,4.57-6.75l-8.22-6q2.61-3.59,5.46-7l7.78,6.52q2.63-3.12,5.45-6l6.72,6.49q2.61-2.7,5.39-5.21l5.75,6.38q2.56-2.31,5.28-4.44l4.87,6.23c1.67-1.3,3.38-2.55,5.13-3.73l-4.42-6.56q2.85-1.92,5.85-3.66l-4.3-7.44q3.24-1.87,6.62-3.52l-4.1-8.4q3.66-1.78,7.45-3.32l-3.8-9.41q4.1-1.67,8.32-3l3.14,9.66c2.57-.84,5.19-1.59,7.84-2.25l-2.46-9.85c2.85-.71,5.74-1.33,8.67-1.84Z"/><path class="cls-2" d="M485.87,300.42c-.25-3.62-.62-7.22-1.12-10.77s-1.12-7.16-1.86-10.67-1.62-7.06-2.61-10.52-2.12-6.92-3.35-10.3-2.6-6.75-4.06-10-3.07-6.56-4.76-9.74-3.51-6.32-5.43-9.37-3.94-6.06-6.06-9-4.36-5.77-6.68-8.53-4.74-5.45-7.25-8.05-5.1-5.11-7.79-7.52-5.44-4.75-8.29-7-5.76-4.36-8.75-6.38-6.06-3.93-9.19-5.75-6.31-3.5-9.56-5.09-6.54-3.05-9.9-4.41-6.73-2.58-10.18-3.7-6.89-2.11-10.41-3-7-1.63-10.6-2.25-7.12-1.12-10.73-1.5l-.55,5.22-1.25,11.93q4.81.51,9.53,1.33l-.9,5.13c3.06.53,6.08,1.18,9.06,1.92s6,1.6,8.91,2.55,5.86,2,8.71,3.17,5.7,2.42,8.47,3.77,5.51,2.81,8.18,4.36,5.3,3.18,7.85,4.91,5.06,3.55,7.49,5.46,4.8,3.89,7.09,6,4.52,4.21,6.67,6.43h0q3.21,3.35,6.2,6.89h0q3,3.54,5.71,7.3t5.18,7.67q2.46,3.93,4.65,8t4.07,8.33q1.88,4.22,3.47,8.59c1.06,2.89,2,5.83,2.87,8.81s1.58,6,2.23,9,1.16,6.05,1.59,9.12.75,6.12,1,9.22.33,6.15.33,9.26-.12,6.2-.33,9.26-.53,6.17-1,9.21-1,6.13-1.59,9.13l5.09,1.08,11.73,2.5,5.14,1.09q1.11-5.26,1.86-10.67t1.12-10.78c.25-3.57.39-7.18.39-10.82S486.12,304,485.87,300.42Z"/><path class="cls-2" d="M315.39,162.12l-.55-5.22q-5.41.57-10.73,1.5c-3.57.62-7.11,1.38-10.59,2.25s-7,1.87-10.42,3-6.84,2.35-10.18,3.7-6.66,2.83-9.9,4.41-6.44,3.29-9.56,5.09-6.19,3.73-9.18,5.75-5.92,4.15-8.76,6.38-5.61,4.55-8.29,7-5.28,4.92-7.79,7.52-4.93,5.28-7.25,8.05-4.55,5.61-6.67,8.53-4.15,5.91-6.07,9-3.72,6.18-5.43,9.37-3.28,6.43-4.75,9.74-2.83,6.63-4.07,10-2.35,6.82-3.35,10.3-1.85,7-2.6,10.52-1.37,7.07-1.87,10.67-.87,7.15-1.12,10.77-.38,7.19-.38,10.83.13,7.25.38,10.82.63,7.22,1.12,10.78,1.12,7.16,1.87,10.67l5.13-1.09,11.74-2.5,5.09-1.08c-.64-3-1.17-6.05-1.6-9.13s-.74-6.11-1-9.21-.32-6.15-.32-9.26.11-6.2.32-9.26.54-6.18,1-9.22,1-6.12,1.6-9.12,1.38-6,2.23-9,1.81-5.92,2.86-8.81,2.22-5.78,3.48-8.59,2.62-5.61,4.07-8.33,3-5.4,4.64-8,3.37-5.18,5.19-7.67,3.72-4.94,5.7-7.3,4.06-4.66,6.21-6.89,4.36-4.37,6.66-6.43,4.66-4.06,7.09-6,4.93-3.73,7.49-5.46,5.18-3.36,7.86-4.91,5.39-3,8.18-4.36,5.59-2.61,8.46-3.77,5.76-2.21,8.71-3.17,5.9-1.8,8.91-2.55,6-1.39,9.06-1.92l-.9-5.13q4.71-.82,9.54-1.33Z"/><polyline class="cls-3" points="507.34 402.46 331.07 548.75 154.78 402.46"/><polygon class="cls-4" points="331.3 463.73 307.69 504.64 354.92 504.64 331.3 463.73"/><polygon class="cls-4" points="312.36 477.64 296.78 504.64 327.95 504.64 312.36 477.64"/><polygon class="cls-4" points="349.77 477.73 334.18 504.73 365.36 504.73 349.77 477.73"/><polygon class="cls-5" points="155.01 347.02 131.4 387.93 178.63 387.93 155.01 347.02"/><polygon class="cls-5" points="136.08 360.93 120.49 387.93 151.66 387.93 136.08 360.93"/><polygon class="cls-5" points="173.48 361.02 157.89 388.02 189.07 388.02 173.48 361.02"/><polygon class="cls-6" points="502.12 347.02 478.51 387.93 525.74 387.93 502.12 347.02"/><polygon class="cls-6" points="520.59 361.02 505 388.02 536.18 388.02 520.59 361.02"/><polygon class="cls-16" points="359.9 251.31 344.31 224.32 339.12 233.31 325.85 210.32 302.23 251.22 328.78 251.22 328.73 251.31 359.9 251.31"/><line class="cls-7" x1="279.89" y1="433.47" x2="279.89" y2="280.42"/><polygon class="cls-8" points="277.89 306.04 289.2 295.88 300.3 306.04 290.86 288.96 277.89 292.95 277.89 306.04"/><polygon class="cls-8" points="277.89 329.04 289.2 318.88 300.3 329.04 290.86 311.96 277.89 315.95 277.89 329.04"/><polygon class="cls-8" points="277.89 353.04 289.2 342.88 300.3 353.04 290.86 335.96 277.89 339.95 277.89 353.04"/><polygon class="cls-8" points="277.89 379.86 289.2 369.7 300.3 379.86 290.86 362.79 277.89 366.78 277.89 379.86"/><polygon class="cls-8" points="277.89 402.86 289.2 392.7 300.3 402.86 290.86 385.79 277.89 389.78 277.89 402.86"/><polygon class="cls-8" points="277.89 426.86 289.2 416.7 300.3 426.86 290.86 409.79 277.89 413.78 277.89 426.86"/><polygon class="cls-8" points="277.3 306.04 265.99 295.88 254.89 306.04 264.33 288.96 277.3 292.95 277.3 306.04"/><polygon class="cls-8" points="277.3 329.04 265.99 318.88 254.89 329.04 264.33 311.96 277.3 315.95 277.3 329.04"/><polygon class="cls-8" points="277.3 353.04 265.99 342.88 254.89 353.04 264.33 335.96 277.3 339.95 277.3 353.04"/><polygon class="cls-8" points="277.3 379.86 265.99 369.7 254.89 379.86 264.33 362.79 277.3 366.78 277.3 379.86"/><polygon class="cls-8" points="277.3 402.86 265.99 392.7 254.89 402.86 264.33 385.79 277.3 389.78 277.3 402.86"/><polygon class="cls-8" points="277.3 426.86 265.99 416.7 254.89 426.86 264.33 409.79 277.3 413.78 277.3 426.86"/><polygon class="cls-9" points="277.89 425.5 262.44 452.26 293.34 452.26 277.89 425.5"/><polygon class="cls-4" points="269.94 279.17 258.42 262.99 274.6 274.51 277.89 254.93 281.19 274.51 297.37 262.99 285.84 279.17 305.43 282.47 285.84 285.76 281.19 290.42 277.89 295.01 274.6 290.42 269.94 285.76 250.35 282.47 269.94 279.17"/><circle class="cls-10" cx="376.46" cy="440.77" r="7.52"/><circle class="cls-10" cx="346.46" cy="440.77" r="7.52"/><circle class="cls-10" cx="316.46" cy="440.77" r="7.52"/><circle class="cls-10" cx="331.46" cy="454.77" r="5.27"/><circle class="cls-10" cx="361.46" cy="454.77" r="5.27"/><polygon class="cls-11" points="396.18 389.99 392.91 396.48 351.66 396.48 354.93 389.99 396.18 389.99"/><polygon class="cls-11" points="390.95 400.36 387.68 406.84 346.43 406.84 349.7 400.36 390.95 400.36"/><path class="cls-12" d="M379.12,342.17c4.49-2,8.94-2.29,12.67-.41,9.23,4.63,10.52,20.7,2.89,35.88A46.88,46.88,0,0,1,385.81,390l-14.49,28.2,3.2-1.32,30-.26c18.26-36.92,15-75.79-7.41-87.06a30.44,30.44,0,0,0-16.63-2.92Z"/><rect class="cls-12" x="367.27" y="346.34" width="6.49" height="30.88" transform="translate(96.09 -77.37) rotate(13.68)"/><rect class="cls-11" x="369.27" y="312.39" width="12.29" height="58.48" transform="translate(91.46 -79.1) rotate(13.68)"/><rect class="cls-13" x="372.48" y="271.14" width="18.62" height="88.61" transform="translate(85.45 -81.35) rotate(13.68)"/><path class="cls-11" d="M399.76,312.39a11.48,11.48,0,1,0,11.48,11.48A11.48,11.48,0,0,0,399.76,312.39Zm0,16.72a5.24,5.24,0,1,1,5.24-5.24A5.23,5.23,0,0,1,399.76,329.11Z"/><polygon class="cls-11" points="405.96 412.8 394.06 412.8 351.89 412.8 340 412.8 334.27 424.16 357.62 424.16 388.33 424.16 411.69 424.16 405.96 412.8"/><text class="cls-14" transform="translate(388.95 515.34) rotate(-39.7)">DUHON JAMES ©2020</text></svg>